<svg id="Layer_1" data-name="Layer 1" xmlns="http://www.w3.org/2000/svg" viewBox="0 0 800 200"><defs><style>.cls-1{fill:#004b85;}.cls-2{fill:#00a2b1;}.cls-3{fill:#00a79b;}.cls-4{fill:#ea2b8b;}.cls-5{fill:#f27c20;}.cls-6{fill:#00aced;}.cls-7{fill:#6ebc4a;}</style></defs><title>LogoTema</title><path class="cls-1" d="M78.48,126.42c-10.42,1.88-11.26-14.61-11.26-21a54.68,54.68,0,0,0-.13-6.8c-.19-2.2-.6-3.25-1.22-3.13a50.59,50.59,0,0,0-3.11,5Q52.83,116.91,52,118.12q-8.31,12.34-13,13.2t-5.12-8.71c-.09-1.78.11-7.42.53-16.93.08-2.15-.11-3.17-.56-3.09q-2,.36-10.26,16.15-8.52,16-9.07,21.47c-.13,1.46-1.07,2.33-2.83,2.65-.82.15-1.61-.93-2.21-3.28-3-11.9-.49-56.15,6.35-58.21,1.2-.34,4.62.57,4.08,2.11C17,92,12.58,113.53,14.23,127q6.61-12.44,9.19-16.66,7.45-12.16,11.69-12.92c3.38-.62,5,2.89,4.83,10.49-.28,5.44-1.54,13.38.27,18.47,1.45-.7,4-3.64,7.65-8.9,3-4.4,5.51-8.46,7.59-12.14q8.11-14.64,11.77-15.31c2.44-.44,4,1.51,4.65,5.82q.31,4,.92,12.42,1.09,15.25,5.77,14.51a4.7,4.7,0,0,0,3.15-2.27c.9-1.33,1.65-2.06,2.23-2.16,1.13-.21,1.71.25,1.71,1.4,0,1.58-1,3.14-3.06,4.61a10.57,10.57,0,0,1-4.11,2Z"/><path class="cls-1" d="M152.68,40.22c20.55,5.57,34.84,21.34,35,41.48H193c-.59-20.58-14.41-38.12-38.89-45.45-27.16-8.12-53.6-6.47-92.83,6.35-4.43,3.14-5.22,11.29-2.54,9.67C90.7,35.72,116.49,30.42,152.68,40.22Z"/><path class="cls-1" d="M157.19,129.88c-22.27,11.38-51.69,11-61.13-15.48-4.1-12.15-1.74-20.73,2.7-32.71a2.14,2.14,0,0,0-3.14-2.49c-8.43,6.13-9,24.51-4.35,35.88,13,32.13,45.57,30.64,70.15,18.22Z"/><path class="cls-1" d="M106.79,55c-4.88.88-11.14,16-6.3,15.1C104.61,69.33,111.43,54.13,106.79,55Z"/><path class="cls-2" d="M149.07,111.21c-2.43,8.52-8.94,13.69-17.88,13.69-12.25,0-16.34-10.92-15-21.36s8.17-21.36,20.42-21.36c8.83,0,14.12,4.9,14.4,13.69l-8.28,1.07c-.27-4.32-1.76-8.2-6.95-8.2-7.4,0-10.1,9.48-10.76,14.8s-.39,14.81,7,14.81c5.13,0,7.67-3.89,9-8.15Z"/><path class="cls-2" d="M153.6,109.35c1.05-7.94,6.51-15.56,15.56-15.56s12.64,7.62,11.59,15.56-6.51,15.55-15.51,15.55S152.6,117.23,153.6,109.35Zm18.76,0c.5-3.73.5-9.75-3.92-9.75s-6,6-6.45,9.75-.45,9.74,4,9.74S171.92,113.08,172.36,109.35Z"/><path class="cls-2" d="M195.49,97.52c2.81-2.07,6.23-3.73,9.65-3.73s7.9,2,7,9.33l-2.71,21.14h-8.16l2.26-18c.33-2.4,1-6.18-2.54-6.18-2.37,0-4.47,1.65-6.24,3.25l-2.64,20.88H183.9l3.81-29.83h8.16Z"/><path class="cls-2" d="M224.3,111.21c-.72,3.62,1,7.88,5.18,7.88,2.93,0,4.81-2.29,5.74-4.79l7.4,1.33c-2.54,5.91-8.83,9.27-14.68,9.27-9,0-12.64-7.67-11.64-15.55s6.51-15.56,15.56-15.56c7.78,0,13.3,3.57,11.31,17.42Zm11.53-4.95c.39-3.36-.55-6.66-4.47-6.66-3.7,0-5.63,3.46-6.12,6.66Z"/><path class="cls-2" d="M265.08,108.65l8.28,15.61h-9.22l-4.52-9.59-6.84,9.59h-8.89l12.14-15-7.72-14.81h9.21l4,8.47,6.34-8.47h8.89Z"/><path class="cls-2" d="M284.79,124.26h-8.17l3.81-29.83h8.17Zm4.36-34.19H281l.94-7.25h8.17Z"/><path class="cls-2" d="M291.8,109.35c1.05-7.94,6.51-15.56,15.56-15.56S320,101.41,319,109.35s-6.51,15.55-15.51,15.55S290.8,117.23,291.8,109.35Zm18.76,0c.5-3.73.5-9.75-3.92-9.75s-6,6-6.46,9.75-.44,9.74,4,9.74S310.12,113.08,310.56,109.35Zm-2.37-26.53h7.5L309,90.28h-5.07Z"/><path class="cls-2" d="M333.69,97.52c2.81-2.07,6.23-3.73,9.65-3.73s7.89,2,7,9.33l-2.71,21.14h-8.16l2.26-18c.33-2.4,1-6.18-2.54-6.18-2.37,0-4.47,1.65-6.24,3.25l-2.65,20.88H322.1l3.8-29.83h8.17Z"/><path class="cls-1" d="M363.88,124.26l5.3-41.44h12.36c13.91,0,16.83,4.69,15.95,11.4-.5,3.89-2.76,6.71-6.51,8.58a9,9,0,0,1,5.07,9.53c-.93,7.14-7.56,11.93-15.39,11.93Zm15-6.55c2.59,0,7.56.32,8.39-6,.72-5.64-4-6.39-12.47-5.8l-1.49,11.77Zm-3.25-18.06c6.34,0,12.25.7,13-5,.78-5.91-5.62-5.28-11.7-5.28Z"/><path class="cls-1" d="M417.58,121.54c-3.31,2.08-5.24,3.36-9.16,3.36-5.35,0-9.27-3.52-8.61-8.84,1.05-8.42,12.75-10.12,19.43-10.81,1-4.16-.17-5.65-3.2-5.65-2.6,0-4.64,1.12-5.41,3.73L403,102.16c2.64-6.34,7.28-8.37,13.74-8.37,8.33,0,11.64,3.84,11,9.43L425.75,118a13.07,13.07,0,0,0,.33,6.23h-7.95Zm.94-10.91c-3.42.58-10.16.9-10.71,5.27-.22,1.76.5,3.19,2.43,3.19,3.37,0,5.91-1.91,7.73-3.88Z"/><path class="cls-1" d="M442.69,97.52c2.82-2.07,6.24-3.73,9.66-3.73s7.89,2,6.95,9.33l-2.7,21.14h-8.17l2.27-18c.33-2.4,1-6.18-2.54-6.18-2.38,0-4.47,1.65-6.24,3.25l-2.65,20.88H431.1l3.81-29.83h8.17Z"/><path class="cls-1" d="M489.33,114.62a14.49,14.49,0,0,1-14.18,10.28c-9,0-12.64-7.67-11.65-15.55S470,93.79,479.06,93.79c6.9,0,11.1,4,11.65,10.28l-7.56,1.23c-.28-2.82-.66-5.7-4.8-5.7-4.42,0-6,6-6.46,9.75s-.44,9.74,4,9.74c4.14,0,5.3-2.87,6.24-5.75Z"/><path class="cls-1" d="M511.24,121.54c-3.31,2.08-5.24,3.36-9.16,3.36-5.35,0-9.27-3.52-8.61-8.84,1-8.42,12.75-10.12,19.43-10.81,1.05-4.16-.17-5.65-3.2-5.65-2.6,0-4.64,1.12-5.41,3.73l-7.67-1.17c2.65-6.34,7.28-8.37,13.74-8.37,8.33,0,11.64,3.84,11,9.43L519.41,118a13.07,13.07,0,0,0,.33,6.23h-7.95Zm.94-10.91c-3.42.58-10.16.9-10.71,5.27-.22,1.76.5,3.19,2.43,3.19,3.37,0,5.91-1.91,7.73-3.88Z"/><path class="cls-1" d="M536.19,99.65c3.59-3.56,6.4-5.86,10.15-5.86h1.55l-1,7.89a11,11,0,0,0-2.31-.32,10.78,10.78,0,0,0-9.88,9.8L533,124.26h-8.17l3.81-29.83h8.17Z"/><path class="cls-1" d="M556.11,124.26H548l3.8-29.83h8.17Zm4.36-34.19h-8.16l.93-7.25h8.17Z"/><path class="cls-1" d="M567.37,82.82h8.17l-1.88,14.54c2.6-2,4.75-3.57,8.06-3.57,4.47,0,10.87,3.79,9.44,14.81-1.6,12.57-7.78,16.3-14,16.3a9.41,9.41,0,0,1-7.45-3.14l-1.05,2.5h-6.57Zm4,32.76c1,1.86,2.42,3.51,4.85,3.51,4.91,0,6.35-5.85,6.84-9.42.39-3.31.17-8.84-4.35-8.84-2.38,0-4.25,1.59-5.85,3.24Z"/><path class="cls-1" d="M603.36,111.21c-.72,3.62,1,7.88,5.18,7.88,2.93,0,4.81-2.29,5.74-4.79l7.4,1.33c-2.54,5.91-8.83,9.27-14.68,9.27-9,0-12.64-7.67-11.64-15.55s6.51-15.56,15.56-15.56c7.78,0,13.3,3.57,11.31,17.42Zm11.53-4.95c.39-3.36-.55-6.66-4.47-6.66-3.7,0-5.63,3.46-6.12,6.66Z"/><rect class="cls-3" x="169.49" y="138.89" width="124.82" height="9.24"/><rect class="cls-4" x="293.65" y="138.89" width="124.81" height="9.24"/><rect class="cls-5" x="418.46" y="138.89" width="124.86" height="9.24"/><rect class="cls-6" x="542.29" y="138.89" width="124.82" height="9.24"/><rect class="cls-7" x="666.43" y="138.89" width="124.82" height="9.24"/><path class="cls-2" d="M651,83.26c15.59,0,20,8.86,18.6,20.5s-8.59,20.5-20.82,20.5H636l5-41Zm-2,34c6.54,0,11-4.11,12.28-14.49,1.05-8.59-2.16-12.59-9.85-12.59h-3.11L645,117.3Z"/><path class="cls-2" d="M679.86,124.26h-7.8l3.64-29.51h7.79ZM684,90.43h-7.8l.9-7.17h7.8Z"/><path class="cls-2" d="M696,114.56a2.35,2.35,0,0,0-2.47,1.85c-.48,3.84,20.81-2.85,19.39,8.69-.53,4.38-4.06,9-15.76,9-10.17,0-13.22-3.58-12.75-7.43.32-2.26,1.85-3.42,3.8-4.48a4,4,0,0,1-1.85-3.74c.32-2.9,2.11-4.42,4.53-5.9a9.83,9.83,0,0,1-2.68-8.11c.79-6.54,6.79-10.33,13.17-10.33a12.81,12.81,0,0,1,7,2c1.79-1.47,3.32-2.42,5.64-2.42a10.87,10.87,0,0,1,2.26.21l-.68,5.48a6.29,6.29,0,0,0-2.43-.63,4.64,4.64,0,0,0-2.16.63,11,11,0,0,1,1,5c-.79,6.53-6.74,10.32-13.12,10.32Zm-3.68,9.75a2.36,2.36,0,0,0-1.43,1.85c-.37,2.74,5.17,2.89,7,2.89,1.32,0,8.17-.15,8.48-2.52.16-1.53-.89-1.38-5.47-1.64Zm7.16-14.7c3.27,0,4.53-2.69,4.9-5.48s-.68-4.95-3.63-4.95c-3.27,0-4.59,2.74-4.9,5.53S696.51,109.61,699.51,109.61Z"/><path class="cls-2" d="M725,124.26h-7.8l3.64-29.51h7.8Zm4.17-33.83h-7.8l.89-7.17H730Z"/><path class="cls-2" d="M742.88,94.75h6.06l-.79,6.48h-6.06l-1.85,15c-.21,1.42.06,2.9,2.58,2.9A6,6,0,0,0,746,118l-.69,6a19.38,19.38,0,0,1-5.11.89c-4.84,0-8.53-2.74-7.74-9.17l1.79-14.49h-3.64l.79-6.48h3.64l.89-7.38h7.8Z"/><path class="cls-2" d="M765.32,121.57c-3.16,2.06-5,3.32-8.74,3.32-5.11,0-8.86-3.48-8.22-8.75,1-8.32,12.17-10,18.55-10.69,1-4.11-.16-5.59-3.06-5.59a4.91,4.91,0,0,0-5.17,3.69l-7.32-1.16c2.53-6.27,7-8.27,13.12-8.27,8,0,11.12,3.79,10.49,9.32l-1.85,14.65a13.47,13.47,0,0,0,.32,6.17h-7.59Zm.9-10.8c-3.27.58-9.7.9-10.22,5.22-.21,1.73.47,3.16,2.32,3.16,3.21,0,5.63-1.9,7.37-3.85Z"/><path class="cls-2" d="M786.19,124.26h-7.8l5.06-41h7.8Z"/></svg>